<svg xmlns="http://www.w3.org/2000/svg" viewBox="0 0 300 450">
	<rect width="300" height="450" fill="#2c3e50" />
	<rect x="20" y="20" width="260" height="410" stroke="#95a5a6" stroke-width="2" fill="none" rx="5" ry="5" />
	<rect x="40" y="50" width="220" height="30" fill="#34495e" />
	<circle cx="50" cy="65" r="5" fill="#95a5a6" />
	<circle cx="70" cy="65" r="5" fill="#95a5a6" />
	<circle cx="90" cy="65" r="5" fill="#95a5a6" />
	<circle cx="110" cy="65" r="5" fill="#95a5a6" />
	<circle cx="130" cy="65" r="5" fill="#95a5a6" />
	<circle cx="150" cy="65" r="5" fill="#95a5a6" />
	<circle cx="170" cy="65" r="5" fill="#95a5a6" />
	<circle cx="190" cy="65" r="5" fill="#95a5a6" />
	<circle cx="210" cy="65" r="5" fill="#95a5a6" />
	<circle cx="230" cy="65" r="5" fill="#95a5a6" />
	<circle cx="250" cy="65" r="5" fill="#95a5a6" />
	<circle cx="150" cy="190" r="60" fill="#34495e" />
	<path d="M130 165 L130 215 L180 190 Z" fill="#ecf0f1" />
	<text x="150" y="300" font-family="Arial, sans-serif" font-size="24" font-weight="bold" fill="#ecf0f1" text-anchor="middle">
		NO POSTER
	</text>
	<text x="150" y="330" font-family="Arial, sans-serif" font-size="16" fill="#95a5a6" text-anchor="middle">
		Зображення недоступне
	</text>
	<rect x="40" y="370" width="220" height="30" fill="#34495e" />
	<circle cx="50" cy="385" r="5" fill="#95a5a6" />
	<circle cx="70" cy="385" r="5" fill="#95a5a6" />
	<circle cx="90" cy="385" r="5" fill="#95a5a6" />
	<circle cx="110" cy="385" r="5" fill="#95a5a6" />
	<circle cx="130" cy="385" r="5" fill="#95a5a6" />
	<circle cx="150" cy="385" r="5" fill="#95a5a6" />
	<circle cx="170" cy="385" r="5" fill="#95a5a6" />
	<circle cx="190" cy="385" r="5" fill="#95a5a6" />
	<circle cx="210" cy="385" r="5" fill="#95a5a6" />
	<circle cx="230" cy="385" r="5" fill="#95a5a6" />
	<circle cx="250" cy="385" r="5" fill="#95a5a6" />
</svg>
